<svg xmlns="http://www.w3.org/2000/svg" width="20" height="17" viewBox="0 0 20 17">
    <path fill="#363636" fill-rule="nonzero" d="M19.207 3.888a2.585 2.585 0 0 0-1.9-.797H9.232v-.386c0-.741-.265-1.377-.793-1.908A2.585 2.585 0 0 0 6.538 0H2.692C1.955 0 1.322.266.793.797A2.608 2.608 0 0 0 0 2.705v11.59c0 .74.264 1.377.793 1.908a2.585 2.585 0 0 0 1.9.797h14.615c.737 0 1.37-.266 1.899-.797A2.608 2.608 0 0 0 20 14.295v-8.5c0-.74-.264-1.376-.793-1.907zm-.745 10.407c0 .322-.113.596-.337.822a1.11 1.11 0 0 1-.817.337H2.692a1.11 1.11 0 0 1-.817-.337 1.12 1.12 0 0 1-.336-.822V2.705c0-.322.112-.596.336-.821a1.11 1.11 0 0 1 .817-.338H6.54c.32 0 .593.112.817.338.224.225.336.499.336.82v.773c0 .323.113.596.337.821.224.226.497.339.817.339h8.462c.32 0 .593.112.817.338.224.225.337.499.337.82v8.5z"/>
</svg>
